<?xml version="1.0" encoding="UTF-8"?>
<svg version="1.1" xmlns="http://www.w3.org/2000/svg" width="512" height="512">
<path d="M0 0 C0.89171906 -0.0049649 1.78343811 -0.00992981 2.70217896 -0.01504517 C5.65530167 -0.02965721 8.60837048 -0.03647098 11.56152344 -0.04199219 C13.62497966 -0.04774909 15.68843587 -0.05350675 17.75189209 -0.05926514 C22.08622486 -0.06977562 26.4205391 -0.07561645 30.75488281 -0.07910156 C36.26863514 -0.08455412 41.7821365 -0.10851205 47.2958107 -0.13707352 C51.56504997 -0.15584935 55.83423095 -0.16091361 60.103508 -0.16243744 C62.13337307 -0.1654363 64.16323781 -0.1733694 66.19306183 -0.18662262 C90.76676243 -0.33547673 112.23350547 3.1919287 130.92089844 20.47363281 C143.33349574 33.63039063 146.71574664 49.35352772 146.44042969 66.81738281 C145.62255517 89.31497538 134.12370949 109.07209954 118.23730469 124.51660156 C110.92265404 131.07266028 102.05303236 136.07535121 93.17089844 140.16113281 C94.07710937 140.58523437 94.98332031 141.00933594 95.91699219 141.44628906 C113.63482331 149.90180649 125.98128349 161.63957172 133.17089844 180.16113281 C140.0712644 201.99685463 135.02948708 223.99299964 124.85839844 243.84863281 C121.51684169 249.83469038 117.74411084 255.06179862 113.17089844 260.16113281 C112.37039062 261.05574219 111.56988281 261.95035156 110.74511719 262.87207031 C90.6525028 284.12559131 59.81514456 296.03025739 30.7817421 297.262537 C28.08447201 297.31133435 25.38861995 297.33047255 22.69091797 297.33813477 C21.6719342 297.34470596 20.65295044 297.35127716 19.60308838 297.35804749 C16.253295 297.37765185 12.90354608 297.38941175 9.55371094 297.39941406 C8.40407742 297.40348959 7.25444389 297.40756512 6.06997299 297.41176414 C-0.01047838 297.43256595 -6.09090755 297.44689534 -12.17138672 297.45629883 C-18.43449548 297.46737552 -24.6972502 297.50180734 -30.96023369 297.54147053 C-35.7936772 297.56766 -40.62703637 297.57599256 -45.46054459 297.57958031 C-47.76890592 297.58443693 -50.07726372 297.59602438 -52.38555527 297.6146183 C-55.62076484 297.63906807 -58.85505761 297.6380342 -62.09033203 297.63110352 C-63.50431778 297.6503186 -63.50431778 297.6503186 -64.9468689 297.66992188 C-75.38774139 297.588834 -83.22193256 293.84596264 -90.68847656 286.63769531 C-96.59449047 279.80482521 -97.73274974 272.15072475 -97.09265137 263.3182373 C-96.02941726 254.61587049 -93.21007245 246.08936181 -90.89160156 237.66113281 C-90.22594376 235.19344173 -89.56185964 232.72532574 -88.89916992 230.25683594 C-87.40226692 224.68847131 -85.8938455 219.12331877 -84.37988281 213.55957031 C-81.59750324 203.32952233 -78.85370335 193.08920238 -76.11035156 182.84863281 C-71.63033402 166.13067797 -67.13381647 149.41722959 -62.62855148 132.70606232 C-58.97553462 119.15418145 -55.33814155 105.59822396 -51.71589661 92.03808594 C-49.78263081 84.80109293 -47.84439284 77.5654346 -45.90484142 70.3301239 C-44.58572117 65.40802926 -43.2692539 60.4852579 -41.95901489 55.56079102 C-40.73748246 50.96986429 -39.50908047 46.38083081 -38.27549362 41.79312897 C-37.82632886 40.11771836 -37.37970038 38.44162531 -36.93587112 36.7647934 C-29.98885957 10.53402299 -29.98885957 10.53402299 -20.36035156 4.65332031 C-13.33120061 1.03537497 -7.90027375 0.01052043 0 0 Z M23.17089844 56.16113281 C21.08029499 63.80075281 18.99377572 71.44147136 16.91247559 79.08363056 C15.94593909 82.63207155 14.977995 86.18011603 14.00683594 89.72729492 C13.06984258 93.1498858 12.13654442 96.57346453 11.20581055 99.99776268 C10.84989108 101.30466843 10.49263678 102.6112114 10.1340332 103.91738319 C9.63238324 105.74547305 9.13589648 107.57497739 8.63964844 109.40454102 C8.35541016 110.44600784 8.07117188 111.48747467 7.77832031 112.5605011 C7.05717571 115.20292378 7.05717571 115.20292378 7.17089844 118.16113281 C11.32941221 118.21144054 15.48775396 118.24726988 19.64648438 118.27099609 C21.05439345 118.28091095 22.46228277 118.29444693 23.87011719 118.31201172 C40.42422603 118.5130259 56.3600871 117.87387461 69.17089844 106.16113281 C76.49380236 98.50944545 80.61663183 89.25160546 81.25683594 78.63769531 C81.02801158 72.04339327 79.42148522 66.86134397 74.60839844 62.22363281 C65.47932429 54.23323888 52.31013266 55.80299512 41.04589844 55.97363281 C39.30893088 55.98870728 37.57195066 56.00239079 35.83496094 56.01464844 C31.61328992 56.04743457 27.39223631 56.09906368 23.17089844 56.16113281 Z M-7.82910156 173.16113281 C-8.46457134 175.4462743 -9.09998378 177.73143171 -9.73535156 180.01660156 C-9.93589142 180.73781693 -10.13643127 181.45903229 -10.3430481 182.20210266 C-11.45987721 186.21936443 -12.57572707 190.23689498 -13.68994141 194.25488281 C-14.15037268 195.91504404 -14.61082202 197.57520026 -15.07128906 199.23535156 C-15.30230316 200.06827728 -15.53331726 200.901203 -15.77133179 201.7593689 C-17.06993268 206.43786657 -18.37533605 211.11436364 -19.68988037 215.78840637 C-20.25945292 217.81493267 -20.82690074 219.84204063 -21.39355469 221.86938477 C-22.08870484 224.35473858 -22.78778408 226.83899753 -23.49121094 229.32202148 C-23.95624023 230.99035034 -23.95624023 230.99035034 -24.43066406 232.69238281 C-24.70217285 233.65724609 -24.97368164 234.62210938 -25.25341797 235.61621094 C-25.97619103 238.37650025 -25.97619103 238.37650025 -25.82910156 242.16113281 C-18.78567637 242.21222249 -11.74229972 242.24702859 -4.69873047 242.27099609 C-2.30711074 242.28099747 0.08449694 242.2946029 2.47607422 242.31201172 C5.93167105 242.3365195 9.38710495 242.3476749 12.84277344 242.35644531 C14.42321442 242.37192917 14.42321442 242.37192917 16.0355835 242.38772583 C33.03194613 242.39024262 47.46075593 238.50448962 59.88183594 226.50878906 C66.99779441 218.83294553 71.0748834 209.0583696 71.20214844 198.59082031 C70.79549615 191.94205546 69.24919052 186.23246043 64.44433594 181.43847656 C53.84446376 172.84455629 40.94565321 172.99458981 27.91308594 173.06347656 C26.36948898 173.06559898 26.36948898 173.06559898 24.79470825 173.06776428 C21.54507395 173.07331026 18.29551151 173.08585235 15.04589844 173.09863281 C12.82714944 173.10365481 10.60839935 173.10821648 8.38964844 173.11230469 C2.9833744 173.12326192 -2.42285845 173.13994524 -7.82910156 173.16113281 Z " fill="#FFFFFF" transform="translate(114.8291015625,34.8388671875)"/>
<path d="M0 0 C6.18255325 5.07985337 9.44765276 12.36141045 10.3828125 20.21484375 C10.72261266 29.92180158 8.52955554 36.21198962 2.4375 43.6875 C-4.72914503 51.26400218 -13.50514555 57.02528037 -22 63 C-22.84127441 63.59393555 -23.68254883 64.18787109 -24.54931641 64.79980469 C-29.55699557 68.33134322 -34.58190253 71.83757669 -39.61279297 75.3359375 C-43.31528186 77.91685019 -47.00220463 80.51961963 -50.6875 83.125 C-51.37803467 83.61315186 -52.06856934 84.10130371 -52.7800293 84.60424805 C-54.16262882 85.58166165 -55.54519734 86.55911911 -56.92773438 87.53662109 C-59.0177979 89.0125684 -61.11013089 90.48524322 -63.203125 91.95703125 C-70.46478379 97.06677683 -77.69202409 102.21764636 -84.875 107.4375 C-94.11893784 114.15054164 -103.53931744 120.59733184 -113 127 C-112.41949056 130.4710034 -111.53809645 133.28970587 -109.94970703 136.42529297 C-109.52480988 137.271633 -109.09991272 138.11797302 -108.66213989 138.98995972 C-108.19871185 139.89819489 -107.73528381 140.80643005 -107.2578125 141.7421875 C-106.53330399 143.18127975 -106.53330399 143.18127975 -105.79415894 144.64944458 C-104.24343312 147.72752532 -102.68470617 150.80146137 -101.125 153.875 C-99.10348057 157.87074049 -97.08564482 161.86832305 -95.0703125 165.8671875 C-94.30880135 167.37705231 -94.30880135 167.37705231 -93.53190613 168.91741943 C-90.12282538 175.70027123 -86.81230113 182.52423753 -83.55859375 189.3828125 C-79.64982517 197.62041228 -75.6313165 205.79537464 -71.52734375 213.9375 C-70.98573608 215.0128299 -70.44412842 216.08815979 -69.8861084 217.19607544 C-67.6707672 221.59048329 -65.45274013 225.98349883 -63.2277832 230.37304688 C-61.57225338 233.64184575 -59.92427194 236.91436088 -58.27734375 240.1875 C-57.52432228 241.66561157 -57.52432228 241.66561157 -56.75608826 243.17358398 C-51.38498638 253.87587639 -48.46090036 265.14715705 -51.875 277.05078125 C-55.52847136 284.97064186 -61.39895904 289.97713517 -69.4140625 293.24609375 C-79.85270296 296.28938319 -89.71890849 295.5460909 -99.1875 290.375 C-106.65091486 286.09250988 -110.70349792 278.21243501 -114.28515625 270.671875 C-114.66307312 269.89365387 -115.04098999 269.11543274 -115.43035889 268.31362915 C-116.64970542 265.79648308 -117.85637157 263.27350273 -119.0625 260.75 C-119.91248144 258.98754059 -120.76299144 257.22533599 -121.61401367 255.46337891 C-126.96041345 244.36961369 -132.19904855 233.22810415 -137.34667969 222.04077148 C-141.2415528 213.58466598 -145.25239967 205.19006059 -149.3125 196.8125 C-149.90553953 195.58798264 -150.49855747 194.36345482 -151.09155273 193.13891602 C-152.21319408 190.82306874 -153.33485656 188.5072317 -154.45654297 186.19140625 C-156.61014146 181.73841044 -158.75287106 177.28057809 -160.875 172.8125 C-161.20282471 172.12969971 -161.53064941 171.44689941 -161.8684082 170.7434082 C-164 166.23305764 -164 166.23305764 -164 164 C-167.3963975 166.31167219 -170.79200681 168.62449976 -174.1875 170.9375 C-175.12787109 171.57751953 -176.06824219 172.21753906 -177.03710938 172.87695312 C-178.94565274 174.17735047 -180.84450513 175.49209507 -182.73295593 176.82150269 C-186 179 -186 179 -189.22236633 180.68740845 C-196.60833527 184.86012799 -200.10537321 188.634311 -202.5078125 196.84936523 C-203.4676104 200.40081518 -204.30086703 203.97364998 -205.125 207.55859375 C-205.60538838 209.47352584 -206.09058545 211.38725733 -206.58032227 213.29981995 C-207.85167405 218.31151528 -209.06453379 223.33546456 -210.26312256 228.36499023 C-212.19300163 236.41188101 -214.21965887 244.43517667 -216.23162842 252.46183968 C-216.92271583 255.24896975 -217.59357221 258.04030299 -218.26025391 260.83335876 C-223.97730617 284.4545673 -223.97730617 284.4545673 -234 291 C-234.61101562 291.4125 -235.22203125 291.825 -235.8515625 292.25 C-243.78520492 296.66098266 -254.38217021 296.28531324 -263.0390625 294.3046875 C-271.9003657 291.03999685 -278.97876015 285.64485166 -283 277 C-285.64948613 269.74512438 -285.45140854 262.89441931 -283.56640625 255.48974609 C-283.2521167 254.24133942 -282.93782715 252.99293274 -282.61401367 251.70669556 C-282.26388316 250.35384601 -281.91336708 249.0010962 -281.5625 247.6484375 C-281.19789722 246.21937751 -280.8337297 244.7902064 -280.4699707 243.3609314 C-276.67010607 228.495938 -272.65216424 213.68907896 -268.61617661 198.88684464 C-266.63949248 191.6308853 -264.67388359 184.37191037 -262.70703125 177.11328125 C-262.36463881 175.85019795 -262.36463881 175.85019795 -262.01532936 174.56159782 C-256.95813596 155.90088412 -251.97965587 137.21938693 -247.00918961 118.53541851 C-245.21383073 111.7873465 -243.41494778 105.04022211 -241.61376953 98.29370117 C-241.36353657 97.35633653 -241.1133036 96.41897188 -240.85548782 95.45320225 C-239.86268722 91.73431626 -238.8698463 88.01544107 -237.87675476 84.29663277 C-235.23785674 74.41369408 -232.60713135 64.52876418 -230.00377369 54.63639927 C-228.45098769 48.73782225 -226.88319349 42.84336892 -225.30874634 36.95053101 C-224.69608219 34.64550654 -224.08925254 32.33892172 -223.48886108 30.03067017 C-222.68226603 26.93153115 -221.85549844 23.83847594 -221.0234375 20.74609375 C-220.69215096 19.4402684 -220.69215096 19.4402684 -220.35417175 18.10806274 C-217.93600896 9.29980816 -213.51120849 2.59257121 -206.125 -2.80859375 C-197.9214895 -7.40798842 -187.00583719 -7.3534281 -177.94921875 -5.3125 C-175.47074246 -4.38740776 -173.28199249 -3.33498647 -171 -2 C-170.28457031 -1.5875 -169.56914062 -1.175 -168.83203125 -0.75 C-162.73318117 3.2777584 -158.35890319 9.24785927 -156.33984375 16.30859375 C-155.55291468 22.54071018 -155.99138803 28.00725922 -157.484375 34.08984375 C-157.65660583 34.79406967 -157.82883667 35.49829559 -158.00628662 36.22386169 C-161.02859968 48.37368307 -164.3919325 60.44054676 -167.69165039 72.51745605 C-168.6325165 75.96352732 -169.57000407 79.4105175 -170.5078125 82.85742188 C-172.33531576 89.57249581 -174.16644194 96.28657687 -176 103 C-174.57380831 102.05983686 -173.14903675 101.11751925 -171.72485352 100.17431641 C-170.93127945 99.64979889 -170.13770538 99.12528137 -169.32008362 98.58486938 C-166.04792976 96.34963251 -162.99561961 93.89084544 -159.9375 91.375 C-154.76633206 87.17961068 -149.53204409 83.09714412 -144.1875 79.125 C-138.48382494 74.88391267 -132.84741038 70.56786942 -127.25 66.1875 C-120.8899945 61.21369364 -114.47102116 56.32843019 -108 51.5 C-99.23924557 44.96144022 -90.59758303 38.28123242 -81.98535156 31.54882812 C-77.58598363 28.1167585 -73.15846273 24.72138588 -68.72949219 21.32763672 C-66.78845827 19.83761096 -64.85132071 18.3425873 -62.9140625 16.84765625 C-59.31122115 14.07066126 -55.69258106 11.31530409 -52.06494141 8.57080078 C-50.11946173 7.09087453 -48.19046022 5.59146622 -46.26171875 4.08984375 C-31.16985583 -7.4489184 -16.57826239 -10.72853877 0 0 Z " fill="#FFFFFF" transform="translate(502,169)"/>
</svg>
