<?xml version="1.0" encoding="UTF-8" standalone="no"?>
<!-- Created with Inkscape (http://www.inkscape.org/) -->

<svg
   width="6.3499999mm"
   height="6.3499999mm"
   viewBox="0 0 6.3499999 6.3499997"
   version="1.1"
   id="svg5"
   xmlns="http://www.w3.org/2000/svg"
   xmlns:svg="http://www.w3.org/2000/svg">
  <defs
     id="defs2">
    <linearGradient
       id="linearGradient29190">
      <stop
         style="stop-color:#ffffff;stop-opacity:1;"
         offset="0"
         id="stop29188" />
    </linearGradient>
    <marker
       style="overflow:visible"
       id="TriangleOutM"
       refX="0"
       refY="0"
       orient="auto">
      <path
         transform="scale(0.4)"
         style="fill:context-stroke;fill-rule:evenodd;stroke:context-stroke;stroke-width:1pt"
         d="M 5.77,0 -2.88,5 V -5 Z"
         id="path3587" />
    </marker>
    <marker
       style="overflow:visible"
       id="marker17766"
       refX="0"
       refY="0"
       orient="auto">
      <path
         transform="matrix(-0.3,0,0,-0.3,0.69,0)"
         d="M 8.7185878,4.0337352 -2.2072895,0.01601326 8.7185884,-4.0017078 c -1.7454984,2.3720609 -1.7354408,5.6174519 -6e-7,8.035443 z"
         style="fill:context-stroke;fill-rule:evenodd;stroke:context-stroke;stroke-width:0.625;stroke-linejoin:round"
         id="path17764" />
    </marker>
    <marker
       style="overflow:visible"
       id="Arrow1Send"
       refX="0"
       refY="0"
       orient="auto">
      <path
         transform="matrix(-0.2,0,0,-0.2,-1.2,0)"
         style="fill:context-stroke;fill-rule:evenodd;stroke:context-stroke;stroke-width:1pt"
         d="M 0,0 5,-5 -12.5,0 5,5 Z"
         id="path3457" />
    </marker>
    <marker
       style="overflow:visible"
       id="marker17754"
       refX="0"
       refY="0"
       orient="auto">
      <path
         transform="matrix(-0.3,0,0,-0.3,0.69,0)"
         d="M 8.7185878,4.0337352 -2.2072895,0.01601326 8.7185884,-4.0017078 c -1.7454984,2.3720609 -1.7354408,5.6174519 -6e-7,8.035443 z"
         style="fill:context-stroke;fill-rule:evenodd;stroke:context-stroke;stroke-width:0.625;stroke-linejoin:round"
         id="path17752" />
    </marker>
    <marker
       style="overflow:visible"
       id="Arrow2Send"
       refX="0"
       refY="0"
       orient="auto">
      <path
         transform="matrix(-0.3,0,0,-0.3,0.69,0)"
         d="M 8.7185878,4.0337352 -2.2072895,0.01601326 8.7185884,-4.0017078 c -1.7454984,2.3720609 -1.7354408,5.6174519 -6e-7,8.035443 z"
         style="fill:context-stroke;fill-rule:evenodd;stroke:context-stroke;stroke-width:0.625;stroke-linejoin:round"
         id="path3475" />
    </marker>
    <marker
       style="overflow:visible"
       id="EmptyTriangleOutM"
       refX="0"
       refY="0"
       orient="auto">
      <path
         transform="matrix(0.4,0,0,0.4,-1.8,0)"
         style="fill:context-fill;fill-rule:evenodd;stroke:context-stroke;stroke-width:1pt"
         d="M 5.77,0 -2.88,5 V -5 Z"
         id="path3605" />
    </marker>
    <marker
       style="overflow:visible"
       id="EmptyTriangleOutM-8"
       refX="0"
       refY="0"
       orient="auto">
      <path
         transform="matrix(0.4,0,0,0.4,-1.8,0)"
         style="fill:context-fill;fill-rule:evenodd;stroke:context-stroke;stroke-width:1pt"
         d="M 5.77,0 -2.88,5 V -5 Z"
         id="path3605-8" />
    </marker>
    <marker
       style="overflow:visible"
       id="EmptyTriangleOutM-8-3"
       refX="0"
       refY="0"
       orient="auto">
      <path
         transform="matrix(0.4,0,0,0.4,-1.8,0)"
         style="fill:context-fill;fill-rule:evenodd;stroke:context-stroke;stroke-width:1pt"
         d="M 5.77,0 -2.88,5 V -5 Z"
         id="path3605-8-2" />
    </marker>
    <marker
       style="overflow:visible"
       id="EmptyTriangleOutM-81"
       refX="0"
       refY="0"
       orient="auto">
      <path
         transform="matrix(0.4,0,0,0.4,-1.8,0)"
         style="fill:context-fill;fill-rule:evenodd;stroke:context-stroke;stroke-width:1pt"
         d="M 5.77,0 -2.88,5 V -5 Z"
         id="path3605-9" />
    </marker>
    <marker
       style="overflow:visible"
       id="EmptyTriangleOutM-6"
       refX="0"
       refY="0"
       orient="auto">
      <path
         transform="matrix(0.4,0,0,0.4,-1.8,0)"
         style="fill:context-fill;fill-rule:evenodd;stroke:context-stroke;stroke-width:1pt"
         d="M 5.77,0 -2.88,5 V -5 Z"
         id="path3605-4" />
    </marker>
    <marker
       style="overflow:visible"
       id="EmptyTriangleOutM-87"
       refX="0"
       refY="0"
       orient="auto">
      <path
         transform="matrix(0.4,0,0,0.4,-1.8,0)"
         style="fill:context-fill;fill-rule:evenodd;stroke:context-stroke;stroke-width:1pt"
         d="M 5.77,0 -2.88,5 V -5 Z"
         id="path3605-99" />
    </marker>
    <marker
       style="overflow:visible"
       id="EmptyTriangleOutM-2"
       refX="0"
       refY="0"
       orient="auto">
      <path
         transform="matrix(0.4,0,0,0.4,-1.8,0)"
         style="fill:context-fill;fill-rule:evenodd;stroke:context-stroke;stroke-width:1pt"
         d="M 5.77,0 -2.88,5 V -5 Z"
         id="path3605-84" />
    </marker>
    <marker
       style="overflow:visible"
       id="EmptyTriangleOutM-7"
       refX="0"
       refY="0"
       orient="auto">
      <path
         transform="matrix(0.4,0,0,0.4,-1.8,0)"
         style="fill:context-fill;fill-rule:evenodd;stroke:context-stroke;stroke-width:1pt"
         d="M 5.77,0 -2.88,5 V -5 Z"
         id="path3605-7" />
    </marker>
    <marker
       style="overflow:visible"
       id="EmptyTriangleOutM-7-0"
       refX="0"
       refY="0"
       orient="auto">
      <path
         transform="matrix(0.4,0,0,0.4,-1.8,0)"
         style="fill:context-fill;fill-rule:evenodd;stroke:context-stroke;stroke-width:1pt"
         d="M 5.77,0 -2.88,5 V -5 Z"
         id="path3605-7-9" />
    </marker>
    <marker
       style="overflow:visible"
       id="EmptyTriangleOutM-7-7"
       refX="0"
       refY="0"
       orient="auto">
      <path
         transform="matrix(0.4,0,0,0.4,-1.8,0)"
         style="fill:context-fill;fill-rule:evenodd;stroke:context-stroke;stroke-width:1pt"
         d="M 5.77,0 -2.88,5 V -5 Z"
         id="path3605-7-0" />
    </marker>
    <marker
       style="overflow:visible"
       id="EmptyTriangleOutM-7-7-2"
       refX="0"
       refY="0"
       orient="auto">
      <path
         transform="matrix(0.4,0,0,0.4,-1.8,0)"
         style="fill:context-fill;fill-rule:evenodd;stroke:context-stroke;stroke-width:1pt"
         d="M 5.77,0 -2.88,5 V -5 Z"
         id="path3605-7-0-2" />
    </marker>
    <marker
       style="overflow:visible"
       id="EmptyTriangleOutM-7-7-2-7"
       refX="0"
       refY="0"
       orient="auto">
      <path
         transform="matrix(0.4,0,0,0.4,-1.8,0)"
         style="fill:context-fill;fill-rule:evenodd;stroke:context-stroke;stroke-width:1pt"
         d="M 5.77,0 -2.88,5 V -5 Z"
         id="path3605-7-0-2-9" />
    </marker>
    <marker
       style="overflow:visible"
       id="EmptyTriangleOutM-2-9"
       refX="0"
       refY="0"
       orient="auto">
      <path
         transform="matrix(0.4,0,0,0.4,-1.8,0)"
         style="fill:context-fill;fill-rule:evenodd;stroke:context-stroke;stroke-width:1pt"
         d="M 5.77,0 -2.88,5 V -5 Z"
         id="path3605-84-4" />
    </marker>
    <marker
       style="overflow:visible"
       id="TriangleOutM-6"
       refX="0"
       refY="0"
       orient="auto">
      <path
         transform="scale(0.4)"
         style="fill:context-stroke;fill-rule:evenodd;stroke:context-stroke;stroke-width:1pt"
         d="M 5.77,0 -2.88,5 V -5 Z"
         id="path3587-4" />
    </marker>
    <marker
       style="overflow:visible"
       id="TriangleOutM-2"
       refX="0"
       refY="0"
       orient="auto">
      <path
         transform="scale(0.4)"
         style="fill:context-stroke;fill-rule:evenodd;stroke:context-stroke;stroke-width:1pt"
         d="M 5.77,0 -2.88,5 V -5 Z"
         id="path3587-3" />
    </marker>
    <marker
       style="overflow:visible"
       id="TriangleOutM-7"
       refX="0"
       refY="0"
       orient="auto">
      <path
         transform="scale(0.4)"
         style="fill:context-stroke;fill-rule:evenodd;stroke:context-stroke;stroke-width:1pt"
         d="M 5.77,0 -2.88,5 V -5 Z"
         id="path3587-2" />
    </marker>
    <marker
       style="overflow:visible"
       id="TriangleOutM-1"
       refX="0"
       refY="0"
       orient="auto">
      <path
         transform="scale(0.4)"
         style="fill:context-stroke;fill-rule:evenodd;stroke:context-stroke;stroke-width:1pt"
         d="M 5.77,0 -2.88,5 V -5 Z"
         id="path3587-1" />
    </marker>
    <marker
       style="overflow:visible"
       id="TriangleOutM-25"
       refX="0"
       refY="0"
       orient="auto">
      <path
         transform="scale(0.4)"
         style="fill:context-stroke;fill-rule:evenodd;stroke:context-stroke;stroke-width:1pt"
         d="M 5.77,0 -2.88,5 V -5 Z"
         id="path3587-9" />
    </marker>
    <marker
       style="overflow:visible"
       id="TriangleOutM-9"
       refX="0"
       refY="0"
       orient="auto">
      <path
         transform="scale(0.4)"
         style="fill:context-stroke;fill-rule:evenodd;stroke:context-stroke;stroke-width:1pt"
         d="M 5.77,0 -2.88,5 V -5 Z"
         id="path3587-19" />
    </marker>
    <marker
       style="overflow:visible"
       id="TriangleOutM-93"
       refX="0"
       refY="0"
       orient="auto">
      <path
         transform="scale(0.4)"
         style="fill:context-stroke;fill-rule:evenodd;stroke:context-stroke;stroke-width:1pt"
         d="M 5.77,0 -2.88,5 V -5 Z"
         id="path3587-6" />
    </marker>
    <marker
       style="overflow:visible"
       id="TriangleOutM-8"
       refX="0"
       refY="0"
       orient="auto">
      <path
         transform="scale(0.4)"
         style="fill:context-stroke;fill-rule:evenodd;stroke:context-stroke;stroke-width:1pt"
         d="M 5.77,0 -2.88,5 V -5 Z"
         id="path3587-31" />
    </marker>
    <marker
       style="overflow:visible"
       id="TriangleOutM-71"
       refX="0"
       refY="0"
       orient="auto">
      <path
         transform="scale(0.4)"
         style="fill:context-stroke;fill-rule:evenodd;stroke:context-stroke;stroke-width:1pt"
         d="M 5.77,0 -2.88,5 V -5 Z"
         id="path3587-7" />
    </marker>
    <marker
       style="overflow:visible"
       id="TriangleOutM-6-5"
       refX="0"
       refY="0"
       orient="auto">
      <path
         transform="scale(0.4)"
         style="fill:context-stroke;fill-rule:evenodd;stroke:context-stroke;stroke-width:1pt"
         d="M 5.77,0 -2.88,5 V -5 Z"
         id="path3587-4-5" />
    </marker>
    <marker
       style="overflow:visible"
       id="TriangleOutM-2-9"
       refX="0"
       refY="0"
       orient="auto">
      <path
         transform="scale(0.4)"
         style="fill:context-stroke;fill-rule:evenodd;stroke:context-stroke;stroke-width:1pt"
         d="M 5.77,0 -2.88,5 V -5 Z"
         id="path3587-3-5" />
    </marker>
    <marker
       style="overflow:visible"
       id="TriangleOutM-7-9"
       refX="0"
       refY="0"
       orient="auto">
      <path
         transform="scale(0.4)"
         style="fill:context-stroke;fill-rule:evenodd;stroke:context-stroke;stroke-width:1pt"
         d="M 5.77,0 -2.88,5 V -5 Z"
         id="path3587-2-5" />
    </marker>
    <marker
       style="overflow:visible"
       id="TriangleOutM-1-7"
       refX="0"
       refY="0"
       orient="auto">
      <path
         transform="scale(0.4)"
         style="fill:context-stroke;fill-rule:evenodd;stroke:context-stroke;stroke-width:1pt"
         d="M 5.77,0 -2.88,5 V -5 Z"
         id="path3587-1-7" />
    </marker>
    <marker
       style="overflow:visible"
       id="TriangleOutM-25-6"
       refX="0"
       refY="0"
       orient="auto">
      <path
         transform="scale(0.4)"
         style="fill:context-stroke;fill-rule:evenodd;stroke:context-stroke;stroke-width:1pt"
         d="M 5.77,0 -2.88,5 V -5 Z"
         id="path3587-9-8" />
    </marker>
    <marker
       style="overflow:visible"
       id="TriangleOutM-9-9"
       refX="0"
       refY="0"
       orient="auto">
      <path
         transform="scale(0.4)"
         style="fill:context-stroke;fill-rule:evenodd;stroke:context-stroke;stroke-width:1pt"
         d="M 5.77,0 -2.88,5 V -5 Z"
         id="path3587-19-3" />
    </marker>
    <marker
       style="overflow:visible"
       id="TriangleOutM-93-0"
       refX="0"
       refY="0"
       orient="auto">
      <path
         transform="scale(0.4)"
         style="fill:context-stroke;fill-rule:evenodd;stroke:context-stroke;stroke-width:1pt"
         d="M 5.77,0 -2.88,5 V -5 Z"
         id="path3587-6-8" />
    </marker>
  </defs>
  <g
     id="layer1"
     transform="translate(-12.460745,-9.525518)" />
  <g
     id="layer2"
     transform="translate(-12.460745,-9.525518)">
    <text
       xml:space="preserve"
       style="font-style:normal;font-weight:normal;font-size:10.5833px;line-height:1.25;font-family:sans-serif;fill:#000000;fill-opacity:1;stroke:none;stroke-width:0.264583"
       x="138.90625"
       y="190.49998"
       id="text8617"><tspan
         id="tspan8615"
         style="stroke-width:0.264583"
         x="138.90625"
         y="190.49998" /></text>
    <path
       id="path983-2-6-1-3-2-7"
       style="stroke-width:0.264583"
       d="m 12.929452,9.525518 c -0.259022,0 -0.468707,0.2046605 -0.468707,0.4573376 v 5.4353274 c 0,0.252942 0.209685,0.457335 0.468707,0.457335 h 5.411039 c 0.25876,0 0.470254,-0.204393 0.470254,-0.457335 V 9.9828556 c 0,-0.2525104 -0.211211,-0.4570651 -0.469738,-0.4573376 z m 2.700094,0.847495 c 0.73066,-1.01e-4 1.220885,0.0041 1.928048,0.02894 0.227478,0.135054 0.676061,0.65041 0.680061,0.785482 v 0.223242 c 0,0.283414 -0.264906,0.532784 -0.505396,0.532784 -0.288769,0 -0.529167,-0.239432 -0.529167,-0.523481 0,0.284049 -0.232119,0.523481 -0.520898,0.523481 -0.288769,0 -0.513663,-0.239432 -0.513663,-0.523481 0,0.284049 -0.247065,0.523481 -0.535887,0.523481 h -0.0052 c -0.28879,0 -0.535884,-0.239432 -0.535884,-0.523481 0,0.284049 -0.224843,0.523481 -0.513663,0.523481 -0.288782,0 -0.521417,-0.239432 -0.521417,-0.523481 -1.8e-5,0.284049 -0.240395,0.523481 -0.529166,0.523481 -0.240491,2e-6 -0.505394,-0.249412 -0.505394,-0.532784 v -0.223242 c 0.0042,-0.13498 0.451903,-0.65006 0.679545,-0.785482 0.202227,-0.01751 1.197917,-0.02887 1.928048,-0.02894 z m -0.543121,1.436605 h 0.0016 a 0.59575474,0.59575474 0 0 1 -0.0011,0.0011 0.59505323,0.59505323 0 0 0 0.100254,0.129709 0.60563971,0.60563971 0 0 0 0.423746,0.173114 c 0.0059,0 0.01156,-2.64e-4 0.01757,-5.29e-4 0.0058,1.67e-4 0.01106,5.29e-4 0.01704,5.29e-4 a 0.60563971,0.60563971 0 0 0 0.424265,-0.173114 0.59501071,0.59501071 0 0 0 0.100769,-0.130741 0.59575474,0.59575474 0 0 0 0.101285,0.130741 c 0.109011,0.106558 0.25853,0.172598 0.42323,0.172598 a 0.60542714,0.60542714 0 0 0 0.424263,-0.172598 c 0.0395,-0.03867 0.06955,-0.07999 0.09715,-0.128159 0.02753,0.04827 0.06582,0.08995 0.10542,0.128675 a 0.6058523,0.6058523 0 0 0 0.423747,0.172598 c 0.02,0 0.04056,-0.0056 0.05736,-0.01138 0.02331,0.241747 0.03269,0.472816 0.03669,0.641305 v 0.0011 c 0.0011,0.08556 0.0016,0.155515 0.0021,0.253215 -0.0045,0.507214 0.05011,1.644065 -0.223759,1.923396 -0.424389,0.09896 -1.205068,0.143899 -1.988507,0.144177 h -5.29e-4 c -0.783461,-2.65e-4 -1.564119,-0.04523 -1.988508,-0.144177 -0.273831,-0.279307 -0.21976,-1.416182 -0.223761,-1.923396 0.0011,-0.09772 0.0016,-0.167675 0.0021,-0.253215 v -0.0011 c 0.0036,-0.168447 0.01296,-0.399558 0.03617,-0.641305 0.0168,0.0057 0.03746,0.01138 0.05736,0.01138 a 0.6058523,0.6058523 0 0 0 0.424264,-0.172598 c 0.0396,-0.03873 0.07792,-0.08042 0.105421,-0.128675 0.0274,0.04817 0.05765,0.08947 0.09715,0.128159 a 0.60546963,0.60546963 0 0 0 0.423748,0.173114 c 0.16473,0 0.314219,-0.06601 0.423228,-0.172598 a 0.59575474,0.59575474 0 0 0 0.100769,-0.130225 0.59505323,0.59505323 0 0 1 -5.29e-4,-0.0011 z m -0.452167,0.563272 c -0.103773,0.0024 -0.403567,0.03967 -0.616501,0.637688 l -0.243914,0.875398 c -0.180768,0.65102 0.05785,0.66657 0.355534,0.667144 0.441452,-0.01643 0.685747,-0.336754 0.685747,-0.657326 0.244369,0.04004 0.529818,0.05994 0.814938,0.05994 0.285089,-8e-6 0.570061,-0.0199 0.814419,-0.05994 0,0.320572 0.244785,0.640885 0.686263,0.657326 0.297691,-5.29e-4 0.536305,-0.01614 0.355534,-0.667144 L 17.242367,13.010578 C 17.015246,12.372691 16.689279,12.37289 16.607779,12.37289 h -5.29e-4 c -0.17246,2.64e-4 -0.325384,2.1e-5 -0.515215,0.207224 -0.149418,-0.01564 -0.305736,-0.02347 -0.461986,-0.02326 -0.15626,-2.49e-4 -0.312587,0.0076 -0.461989,0.02326 -0.189839,-0.207182 -0.342752,-0.206862 -0.515213,-0.207224 h -5.29e-4 c -0.0051,0 -0.01117,-1.56e-4 -0.0181,0 z m 0.995804,0.501261 c 0,0 0.464786,0.427101 0.548285,0.578776 l -0.303855,-0.01241 v 0.265099 c 0,0.01241 -0.122319,0.0078 -0.24443,0.0021 -0.12215,0.0056 -0.24443,0.01034 -0.24443,-0.0021 v -0.265099 l -0.303858,0.01241 c 0.08348,-0.151675 0.547838,-0.578353 0.548288,-0.578776 z" />
  </g>
</svg>
